<?xml version="1.0" standalone="no"?>
<!DOCTYPE svg PUBLIC "-//W3C//DTD SVG 20010904//EN"
 "http://www.w3.org/TR/2001/REC-SVG-20010904/DTD/svg10.dtd">
<svg version="1.0" xmlns="http://www.w3.org/2000/svg"
 width="256.000000pt" height="256.000000pt" viewBox="0 0 256.000000 256.000000"
 preserveAspectRatio="xMidYMid meet">
<metadata>
Created by potrace 1.11, written by Peter Selinger 2001-2013
</metadata>
<g transform="translate(0.000000,256.000000) scale(0.100000,-0.100000)"
fill="#000000" stroke="none">
<path d="M963 2547 c-4 -7 -8 -25 -8 -42 0 -27 -3 -30 -40 -35 -27 -3 -41 -10
-43 -22 -3 -13 6 -17 40 -20 40 -3 43 -5 43 -33 0 -16 4 -35 8 -42 12 -18 38
-3 36 21 -4 52 -1 56 41 56 33 0 40 3 40 20 0 17 -7 20 -40 20 -42 0 -45 4
-41 56 2 24 -24 39 -36 21z"/>
<path d="M2116 2160 l-399 -398 -48 36 c-27 20 -49 42 -49 49 0 19 -90 59
-189 84 -159 40 -351 14 -499 -66 -68 -37 -106 -73 -93 -89 8 -9 3 -20 -18
-39 -16 -14 -34 -33 -39 -43 -5 -9 -20 -18 -33 -19 -31 -2 -92 -114 -119 -219
-51 -199 -15 -397 101 -566 33 -49 46 -76 40 -84 -5 -6 -181 -182 -390 -391
-209 -209 -381 -385 -381 -392 0 -6 5 -15 11 -19 7 -4 178 160 418 399 l406
406 42 -37 c24 -21 43 -45 43 -55 0 -16 47 -42 134 -74 63 -23 74 -24 182 -30
324 -17 603 188 685 505 33 125 27 253 -17 386 -19 56 -71 149 -109 194 -14
17 -25 34 -25 39 0 5 173 182 384 393 212 211 387 392 389 402 4 13 -13 30
-26 28 -1 0 -181 -180 -401 -400z"/>
<path d="M183 2288 c-6 -7 -9 -45 -8 -85 2 -82 2 -82 -86 -78 -61 2 -91 -8
-83 -30 5 -12 24 -15 85 -15 68 0 79 -2 80 -17 1 -10 3 -43 4 -73 3 -77 3 -80
19 -80 20 0 25 23 24 100 l-1 65 64 3 c83 3 109 9 109 26 0 19 -15 23 -93 21
-37 -1 -70 1 -72 6 -3 4 -6 38 -7 76 -1 72 -5 93 -18 93 -4 0 -12 -6 -17 -12z"/>
<path d="M2430 1781 c-78 -34 -106 -60 -82 -75 11 -7 181 60 201 79 16 16 6
35 -17 34 -9 0 -55 -18 -102 -38z"/>
<path d="M2106 1647 c-44 -18 -82 -39 -84 -46 -9 -26 21 -29 72 -9 115 45 136
56 130 72 -9 22 -28 20 -118 -17z"/>
<path d="M2084 1289 c-16 -26 19 -32 196 -32 99 0 183 3 186 6 4 3 4 13 1 22
-5 13 -34 15 -191 15 -122 0 -187 -4 -192 -11z"/>
<path d="M183 1248 c-3 -7 -7 -26 -8 -43 -1 -27 -5 -30 -41 -35 -26 -3 -40
-11 -42 -22 -4 -19 4 -21 51 -18 16 1 28 -4 28 -12 1 -7 2 -23 3 -35 0 -12 7
-28 14 -35 10 -10 15 -10 22 2 6 8 9 22 9 30 -3 35 2 51 14 49 43 -5 67 2 67
21 0 17 -7 20 -40 20 -38 0 -40 1 -41 33 -1 17 -1 35 -1 39 2 12 -27 17 -35 6z"/>
<path d="M2028 979 c-24 -16 5 -40 89 -74 79 -32 112 -33 101 -3 -8 20 -173
87 -190 77z"/>
<path d="M2340 832 c0 -14 24 -28 94 -56 90 -37 133 -41 124 -13 -5 15 -164
86 -195 86 -16 1 -23 -5 -23 -17z"/>
<path d="M1857 707 c-8 -20 -1 -28 129 -159 108 -108 154 -139 154 -105 0 13
-249 268 -268 275 -5 1 -12 -3 -15 -11z"/>
<path d="M941 523 c-21 -41 -61 -148 -61 -165 0 -20 25 -24 37 -5 21 31 70
163 66 174 -7 19 -31 16 -42 -4z"/>
<path d="M1578 528 c-3 -7 11 -52 31 -100 26 -66 39 -88 53 -88 25 0 23 23
-15 115 -30 75 -59 105 -69 73z"/>
<path d="M1273 472 c-8 -5 -12 -49 -13 -137 -2 -249 -2 -245 20 -245 22 0 23
24 20 280 -1 97 -6 115 -27 102z"/>
<path d="M801 178 c-41 -92 -61 -141 -61 -154 0 -20 21 -28 35 -13 18 21 83
182 78 197 -9 25 -33 11 -52 -30z"/>
<path d="M1707 207 c-6 -15 68 -187 85 -198 24 -15 33 9 19 49 -46 129 -88
190 -104 149z"/>
</g>
</svg>
